HIERARCHY
ROOT Hips
{
  OFFSET -33.9132 29.2015 117.021
  CHANNELS 6 Xposition Yposition Zposition Zrotation Xrotation Yrotation
  JOINT LeftUpLeg
  {
    OFFSET 8.64259 1.95398 -2.38835
    CHANNELS 3 Zrotation Xrotation Yrotation
    JOINT LeftLeg
    {
      OFFSET 43.7702 0 0
      CHANNELS 3 Zrotation Xrotation Yrotation
      JOINT LeftFoot
      {
        OFFSET 40.6238 0 0
        CHANNELS 3 Zrotation Xrotation Yrotation
        JOINT LeftToeBase
        {
          OFFSET 12.7242 0 0
          CHANNELS 3 Zrotation Xrotation Yrotation
          End Site
          {
            OFFSET 0 0 0
          }
        }
      }
    }
  }
  JOINT RightUpLeg
  {
    OFFSET -8.2249 1.95398 -2.59336
    CHANNELS 3 Zrotation Xrotation Yrotation
    JOINT RightLeg
    {
      OFFSET 43.5653 0 0
      CHANNELS 3 Zrotation Xrotation Yrotation
      JOINT RightFoot
      {
        OFFSET 40.6238 0 0
        CHANNELS 3 Zrotation Xrotation Yrotation
        JOINT RightToeBase
        {
          OFFSET 12.7242 0 0
          CHANNELS 3 Zrotation Xrotation Yrotation
          End Site
          {
            OFFSET 0 0 0
          }
        }
      }
    }
  }
  JOINT Spine
  {
    OFFSET 0.165834 0.87714 6.61349
    CHANNELS 3 Zrotation Xrotation Yrotation
    JOINT Spine1
    {
      OFFSET 7.38963 1.71661e-005 0
      CHANNELS 3 Zrotation Xrotation Yrotation
      JOINT Spine2
      {
        OFFSET 11.9445 1.14441e-005 0
        CHANNELS 3 Zrotation Xrotation Yrotation
        JOINT Spine3
        {
          OFFSET 14.7254 4.19617e-005 0
          CHANNELS 3 Zrotation Xrotation Yrotation
          JOINT Spine4
          {
            OFFSET 10.9679 0 0
            CHANNELS 3 Zrotation Xrotation Yrotation
            JOINT RightShoulder
            {
              OFFSET 2.46616 -1.6653 3.69651
              CHANNELS 3 Zrotation Xrotation Yrotation
              JOINT RightArm
              {
                OFFSET 13.0012 0 0
                CHANNELS 3 Zrotation Xrotation Yrotation
                JOINT RightForeArm
                {
                  OFFSET 28.7848 1.62311e-005 0
                  CHANNELS 3 Zrotation Xrotation Yrotation
                  JOINT RightHand
                  {
                    OFFSET 26.5688 1.62095e-005 0
                    CHANNELS 3 Zrotation Xrotation Yrotation
                    End Site
                    {
                      OFFSET 0 0 0
                    }
                  }
                }
              }
            }
            JOINT LeftShoulder
            {
              OFFSET 2.38034 -1.29275 -3.7523
              CHANNELS 3 Zrotation Xrotation Yrotation
              JOINT LeftArm
              {
                OFFSET 16.3182 6.07031e-005 0
                CHANNELS 3 Zrotation Xrotation Yrotation
                JOINT LeftForeArm
                {
                  OFFSET 27.0901 0 0
                  CHANNELS 3 Zrotation Xrotation Yrotation
                  JOINT LeftHand
                  {
                    OFFSET 24.5451 1.51738e-005 0
                    CHANNELS 3 Zrotation Xrotation Yrotation
                    End Site
                    {
                      OFFSET 0 0 0
                    }
                  }
                }
              }
            }
            JOINT Neck
            {
              OFFSET 5.0226 -0.0266342 0
              CHANNELS 3 Zrotation Xrotation Yrotation
              JOINT Head
              {
                OFFSET 6.69364 2.86102e-005 0
                CHANNELS 3 Zrotation Xrotation Yrotation
                End Site
                {
                  OFFSET 0 0 0
                }
              }
            }
          }
        }
      }
    }
  }
}
MOTION
Frames:	13
Frame Time:	0.0416667
-261.441 99.4635 -245.156 -100.481 -57.0991 -98.7626 -174.447 -3.86018 90.4037 -15.329 7.3218 1.30276 69.9085 5.93593 -1.2087 28.6092 1.46695 -3.74428 173.05 -3.56364 88.8768 -13.7873 -11.7848 -0.431734 67.2992 -5.47222 -0.194859 23.5997 0.434252 6.61282 0.380579 7.86008 -90.4395 11.1552 0.553356 -0.92873 -0.515978 0.51196 -0.952193 -23.0503 0.8069 -0.719496 -3.03768 0.806899 -0.719504 91.3035 -27.5603 -105.041 49.8948 4.67045 -5.56811 -4.6141 -30.3456 -5.10646 -14.7316 2.72721 -27.0756 -88.4017 -49.6531 81.0558 -23.3465 -8.8643 -9.15659 -11.1337 29.4803 -0.0204291 10.8325 -2.02934 -21.1649 1.48866 11.436 1.00704 -7.40707 11.0881 1.90386 
-261.595 99.2991 -245.17 -99.2285 -57.137 -97.5904 -173.942 -2.46198 90.8878 -16.8961 7.59483 0.745602 70.8511 6.60072 -1.32967 29.2385 1.69205 -3.66183 173.272 -2.63821 89.1394 -14.4527 -11.6628 -0.394461 67.4609 -5.67972 -0.395908 24.2826 0.160713 6.62173 0.384535 7.8146 -90.5095 11.2461 0.528257 -1.06651 -0.425231 0.480809 -1.08872 -22.9588 0.824355 -0.858455 -2.94612 0.824352 -0.858461 91.3418 -27.3283 -105.048 49.8275 4.56053 -6.00526 -4.60984 -30.3239 -5.10409 -16.1818 2.79452 -25.5268 -88.8394 -50.7721 80.6146 -22.4472 -8.567 -9.58858 -11.1578 30.3938 -0.0206175 12.8199 -2.17987 -19.5764 1.61878 11.5261 1.63366 -7.15493 11.0815 1.91202 
-261.566 99.0879 -244.777 -98.8191 -57.1146 -97.4013 -174.171 -1.89677 90.4649 -18.1009 7.15075 0.756553 71.3632 7.31391 -0.998416 30.6508 2.01195 -3.0029 173.203 -1.54677 88.9063 -16.4103 -11.62 -0.522614 68.2002 -5.97798 -0.119659 25.0783 -0.083053 6.36683 0.362398 7.82712 -90.5124 11.2207 0.483012 -1.06743 -0.450581 0.435552 -1.08766 -22.9839 0.781468 -0.87294 -2.97125 0.78148 -0.872936 91.4602 -27.1825 -104.858 50.0947 4.22953 -6.67036 -4.59539 -30.0348 -5.09843 -17.0114 2.76398 -24.2922 -88.7188 -50.5005 80.7418 -22.7127 -8.57412 -9.73187 -10.9888 31.4523 -0.020847 13.0291 -2.39513 -20.7786 2.18501 11.5175 1.54845 -7.63408 11.062 1.9898 
-261.171 98.651 -244.42 -98.1575 -57.944 -97.1561 -174.175 0.0189814 90.0001 -21.1493 7.08889 0.369733 72.7811 8.94721 -1.14562 31.5291 2.33848 -2.91013 172.471 0.30571 87.9028 -19.6705 -12.0983 -0.146697 69.7912 -6.60098 -0.500444 25.1216 0.00798647 5.97366 0.351495 7.88241 -90.5979 11.1097 0.422159 -1.23081 -0.561754 0.367577 -1.2482 -23.0938 0.772536 -1.04707 -3.08119 0.772539 -1.04707 92.4325 -26.0528 -103.213 50.7245 3.55324 -7.85366 -4.62096 -30.5278 -5.10866 -17.044 2.49808 -22.4487 -89.4514 -50.8187 79.716 -23.0247 -7.37365 -11.1464 -11.2846 31.1764 0.0428809 12.6761 -2.20911 -19.752 3.07303 11.1246 1.98641 -7.52834 10.5682 2.21376 
-260.47 98.018 -244.304 -98.0538 -58.3735 -96.2658 -173.111 3.50344 90.7299 -27.1736 8.93952 -0.37093 73.6832 10.35 1.20509 32.6731 2.76152 -2.78549 172.318 2.1705 88.2587 -22.9358 -11.4952 0.258912 70.8276 -6.93921 -0.288541 26.4183 -0.546785 6.11196 0.331745 7.94973 -90.8164 10.9736 0.282452 -1.65111 -0.69834 0.209536 -1.66195 -23.2266 0.765554 -1.48995 -3.21393 0.765578 -1.48995 92.5076 -25.4057 -103.286 49.832 3.94954 -7.90388 -4.68915 -31.8234 -5.13697 -17.1943 2.49655 -22.2905 -89.749 -51.3491 79.3835 -23.0131 -6.96272 -11.3828 -10.8424 29.4477 -0.905157 14.5229 -2.37381 -18.6435 3.52277 10.8846 2.40898 -7.02608 10.2372 2.67091 
-259.444 97.4366 -244.16 -96.3155 -58.0049 -94.4076 -171.444 8.80391 90.9249 -34.6942 5.88006 -1.68836 73.7003 9.63275 0.111465 31.7403 2.63379 -3.47578 171.941 5.23749 87.8058 -26.3458 -13.1366 0.56539 71.0965 -7.193 -0.368912 28.0277 -1.02217 5.45611 0.337334 7.98298 -90.924 10.9066 0.244339 -1.86107 -0.765695 0.162211 -1.87003 -23.2918 0.792304 -1.70169 -3.27911 0.79231 -1.70168 92.8405 -25.0043 -102.709 49.7342 3.80401 -8.49362 -4.59152 -29.9582 -5.09705 -17.6604 3.05466 -25.4734 -89.5781 -51.172 79.5997 -22.8569 -6.18369 -11.0755 -10.2833 33.7651 -1.4948 14.4911 -2.61178 -20.131 5.03398 11.013 1.84195 -7.38404 10.3822 3.32977 
-258.227 96.6668 -243.902 -94.6748 -57.5802 -92.9561 -168.847 14.1953 91.1448 -42.003 2.1944 -3.53094 73.7052 9.36066 0.654678 32.5845 2.34076 -1.69429 170.667 8.67716 86.6202 -30.2611 -15.1958 1.29896 72.1089 -8.10457 -0.467513 28.8736 -1.32029 5.26242 0.28857 8.0614 -91.069 10.7468 0.0817724 -2.13312 -0.925838 -0.0121715 -2.13467 -23.4482 0.718946 -2.01003 -3.43553 0.718966 -2.01003 93.0752 -24.5706 -102.347 48.5083 4.063 -9.49749 -4.60684 -30.2563 -5.10301 -18.2532 3.1089 -25.1099 -90.1218 -51.1437 78.791 -23.0634 -5.73961 -10.3358 -9.49698 35.3806 -2.58034 16.3986 -2.85606 -19.5594 7.3273 11.3014 2.04946 -8.66655 10.5263 3.31654 
-256.838 95.5944 -243.499 -94.3357 -57.132 -93.0534 -166.078 19.0233 91.5721 -49.349 0.0794603 -4.78057 73.8464 9.13466 0.548413 31.7734 1.07928 0.676165 169.889 11.9026 85.1584 -35.2711 -17.0123 1.23608 73.4615 -9.24447 -0.89493 30.5759 -1.85475 4.61671 0.0847879 8.26283 -91.1109 10.3397 -0.339419 -2.17734 -1.333 -0.434913 -2.1603 -23.8536 0.330474 -2.1787 -3.84098 0.330481 -2.17871 93.3229 -24.44 -101.85 47.291 4.13892 -11.1655 -4.63835 -30.8631 -5.1157 -19.5164 3.33175 -25.0971 -89.771 -49.5314 78.9715 -23.8676 -5.53783 -9.88968 -9.08826 37.628 -2.77262 17.8907 -3.22638 -19.9934 9.48884 12.1176 2.03211 -9.21718 11.2097 4.09507 
-255.34 94.3992 -243.01 -93.0499 -56.7134 -92.5713 -163.69 24.5912 93.0559 -56.0546 -2.5239 -5.09308 74.6739 8.57348 -1.93133 30.828 -0.433939 3.41022 169.043 15.79 83.5199 -40.1782 -18.4512 1.10184 74.565 -10.176 -0.53183 31.9003 -2.29862 4.16464 -0.132819 8.38041 -91.167 10.0996 -0.796442 -2.25019 -1.57294 -0.894687 -2.213 -24.0926 -0.0835517 -2.38545 -4.07991 -0.083562 -2.38546 93.3012 -24.3374 -101.933 45.5513 4.71908 -12.1192 -4.63182 -30.7358 -5.1131 -20.3183 3.83125 -27.0506 -90.0421 -49.5223 78.5619 -21.7319 -3.88505 -10.0963 -10.0078 38.1264 -2.2574 19.504 -3.23839 -18.5769 10.074 13.2105 2.06886 -8.79033 12.1474 6.41047 
-253.823 92.713 -242.172 -92.6055 -55.4651 -93.3087 -162.173 28.7316 96.0933 -60.5276 -4.49245 -4.63548 76.6123 9.38704 -3.03624 30.3646 0.419916 0.66727 168.489 19.9427 81.2956 -46.4611 -20.9815 0.374357 76.4913 -12.0104 -1.52972 31.5148 -2.42169 5.50345 -0.268527 8.53548 -91.1502 9.78759 -1.05617 -2.19735 -1.88468 -1.15183 -2.14877 -24.4056 -0.34715 -2.41305 -4.39292 -0.347167 -2.41306 93.3735 -24.3083 -101.783 44.8314 4.87244 -12.8558 -4.42937 -26.7188 -5.03786 -21.9912 4.69655 -29.7825 -90.2412 -48.0386 77.931 -22.6218 -4.86572 -9.93743 -10.5319 40.6504 -0.80584 24.4144 -3.37633 -15.4956 10.161 14.1457 2.52844 -8.39081 12.8899 8.27411 
-252.05 90.8703 -240.708 -91.6971 -52.9009 -94.2198 -161.399 31.5744 100.075 -61.3134 -3.22536 -4.38802 74.5425 9.17372 1.13574 33.2378 3.31215 -3.65448 168.643 24.6014 78.0245 -52.8501 -24.5485 -1.06646 78.1003 -13.5645 -1.778 32.5567 -2.75806 5.12857 -0.217027 8.61623 -91.1552 9.62701 -0.954232 -2.21679 -2.04539 -1.05086 -2.17267 -24.5658 -0.244098 -2.40097 -4.55312 -0.244113 -2.40099 94.2893 -23.531 -100.003 44.1842 5.16716 -12.9797 -4.38258 -25.7515 -5.02204 -25.8358 5.63698 -30.0113 -90.8823 -48.9195 77.1609 -21.1552 -6.4761 -9.52796 -10.6394 41.1386 0.0577389 25.9041 -3.44437 -14.9172 10.4925 15.1522 3.95902 -9.18669 13.4074 9.76578 
-250.246 88.6208 -239.444 -87.9744 -50.2308 -92.2945 -161.112 35.6581 105.936 -60.1723 -4.33022 -4.36585 72.8495 7.93344 1.29416 30.8386 2.18334 -3.25218 170.68 30.9082 76.0355 -59.0422 -25.7344 -2.6987 79.4021 -14.7564 -1.47587 34.114 -3.27597 4.58666 -0.216501 8.53918 -91.1111 9.78211 -0.93473 -2.12994 -1.89017 -1.02754 -2.08676 -24.4118 -0.251566 -2.31229 -4.3992 -0.251566 -2.3123 93.8378 -24.3031 -100.758 41.4632 6.63857 -12.513 -4.36429 -25.3677 -5.01629 -24.8657 5.93675 -32.3424 -90.3163 -48.5251 77.9263 -20.0296 -9.3483 -7.77327 -9.66216 39.8492 0.037408 27.1176 -3.85974 -15.8162 11.6372 16.9685 5.71818 -9.66907 14.6722 9.99171 
-247.627 86.2119 -238.215 -83.8 -51.655 -91.2829 -165.467 39.1641 110.312 -55.1158 -5.22408 -2.7759 68.0811 5.19636 1.43543 29.6645 1.91572 -3.79026 172.089 37.2606 71.3614 -64.4565 -25.6631 -3.72916 80.7682 -15.5529 -1.11406 36.4931 -4.01068 3.22975 -0.692621 8.42321 -90.8661 10.013 -1.77417 -1.57265 -1.65756 -1.84166 -1.49305 -24.1904 -1.21961 -2.03306 -4.17771 -1.21961 -2.03305 92.6766 -26.8387 -102.428 36.4815 9.24831 -11.448 -4.31929 -24.4179 -5.0025 -20.7637 5.54405 -35.7291 -88.2627 -47.0558 80.7661 -18.4916 -13.1647 -4.25655 -5.53406 37.5592 -4.03362 27.3135 -4.68987 -18.8212 15.4888 18.9592 5.72334 -10.8903 16.2799 9.80721 
